# xmcd
#
# Track frame offsets: 
#        150
#        19704
#        42654
#        76213
#        103868
#        117822
#        132634
#        148669
#        164581
#        189423
#        204802
#        219902
#        237404
#        259521
#
# Disc length: 3634 seconds
#
# Revision: 0
# Processed by: cddbd v1.5.1PL2 Copyright (c) Steve Scherf et al.
# Submitted via: ExactAudioCopy v0.95b3
#
DISCID=c40e300e
DTITLE=Various Artist - Buena Vista Social Club
DYEAR=1997
DGENRE=Cuban
TTITLE0=Eliades Ochoa - Chan Chan
TTITLE1=Ibrahim Ferrer - De Camino a La Vereda
TTITLE2=Ry Cooder - El Cuarto de Tula
TTITLE3=Rubén González - Pueblo Nuevo
TTITLE4=Ibrahim Ferrer - Dos Gardenias
TTITLE5=Compay Segundo - Y Tú Qué Has Hecho?
TTITLE6=Omara Portuondo - Veinte Años
TTITLE7=Eliades Ochoa - El Carretero
TTITLE8=Ibrahim Ferrer - Candela
TTITLE9=Compay Segundo - Amor de Loca Juventud
TTITLE10=Compay Segundo - Orgullecida
TTITLE11=Ibrahim Ferrer - Murmullo
TTITLE12=Ry Cooder - Buena Vista Social Club
TTITLE13=Manuel 'Puntillita' Licea - La Bayamesa
EXTD=
EXTT0=
EXTT1=
EXTT2=
EXTT3=
EXTT4=
EXTT5=
EXTT6=
EXTT7=
EXTT8=
EXTT9=
EXTT10=
EXTT11=
EXTT12=
EXTT13=
PLAYORDER=
